<svg id="visual" viewBox="0 0 900 675" width="900" height="675" xmlns="http://www.w3.org/2000/svg" xmlns:xlink="http://www.w3.org/1999/xlink" version="1.1"><rect width="900" height="675" fill="#ebebeb"></rect><g><g transform="translate(86 665)"><path d="M0 -25.6L22.2 -12.8L22.2 12.8L0 25.6L-22.2 12.8L-22.2 -12.8Z" fill="none" stroke="#3a6ea5" stroke-width="2"></path></g><g transform="translate(873 414)"><path d="M0 -17L14.7 -8.5L14.7 8.5L0 17L-14.7 8.5L-14.7 -8.5Z" fill="none" stroke="#3a6ea5" stroke-width="2"></path></g><g transform="translate(895 478)"><path d="M0 -24L20.8 -12L20.8 12L0 24L-20.8 12L-20.8 -12Z" stroke="#3a6ea5" fill="none" stroke-width="2"></path></g><g transform="translate(550 632)"><path d="M0 -23L19.9 -11.5L19.9 11.5L0 23L-19.9 11.5L-19.9 -11.5Z" stroke="#3a6ea5" fill="none" stroke-width="2"></path></g><g transform="translate(6 650)"><path d="M0 -23L19.9 -11.5L19.9 11.5L0 23L-19.9 11.5L-19.9 -11.5Z" stroke="#3a6ea5" fill="none" stroke-width="2"></path></g><g transform="translate(208 407)"><path d="M0 -10L8.7 -5L8.7 5L0 10L-8.7 5L-8.7 -5Z" stroke="#3a6ea5" fill="none" stroke-width="2"></path></g><g transform="translate(611 667)"><path d="M0 -14L12.1 -7L12.1 7L0 14L-12.1 7L-12.1 -7Z" stroke="#3a6ea5" fill="none" stroke-width="2"></path></g><g transform="translate(331 662)"><path d="M0 -12L10.4 -6L10.4 6L0 12L-10.4 6L-10.4 -6Z" stroke="#3a6ea5" fill="none" stroke-width="2"></path></g><g transform="translate(824 145)"><path d="M0 -11L9.5 -5.5L9.5 5.5L0 11L-9.5 5.5L-9.5 -5.5Z" stroke="#3a6ea5" fill="none" stroke-width="2"></path></g><g transform="translate(397 218)"><path d="M0 -7L6.1 -3.5L6.1 3.5L0 7L-6.1 3.5L-6.1 -3.5Z" stroke="#3a6ea5" fill="none" stroke-width="2"></path></g><g transform="translate(101 82)"><path d="M0 -13L11.3 -6.5L11.3 6.5L0 13L-11.3 6.5L-11.3 -6.5Z" stroke="#3a6ea5" fill="none" stroke-width="2"></path></g><g transform="translate(559 292)"><path d="M0 -6L5.2 -3L5.2 3L0 6L-5.2 3L-5.2 -3Z" stroke="#3a6ea5" fill="none" stroke-width="2"></path></g><g transform="translate(707 10)"><path d="M0 -12L10.4 -6L10.4 6L0 12L-10.4 6L-10.4 -6Z" stroke="#3a6ea5" fill="none" stroke-width="2"></path></g><g transform="translate(274 99)"><path d="M0 -5L4.3 -2.5L4.3 2.5L0 5L-4.3 2.5L-4.3 -2.5Z" stroke="#3a6ea5" fill="none" stroke-width="2"></path></g><g transform="translate(196 174)"><path d="M0 -22L19.1 -11L19.1 11L0 22L-19.1 11L-19.1 -11Z" stroke="#3a6ea5" fill="none" stroke-width="2"></path></g><g transform="translate(839 270)"><path d="M0 -11L9.5 -5.5L9.5 5.5L0 11L-9.5 5.5L-9.5 -5.5Z" stroke="#3a6ea5" fill="none" stroke-width="2"></path></g><g transform="translate(345 296)"><path d="M0 -3L2.6 -1.5L2.6 1.5L0 3L-2.6 1.5L-2.6 -1.5Z" stroke="#3a6ea5" fill="none" stroke-width="2"></path></g><g transform="translate(668 76)"><path d="M0 -4L3.5 -2L3.5 2L0 4L-3.5 2L-3.5 -2Z" stroke="#3a6ea5" fill="none" stroke-width="2"></path></g><g transform="translate(519 447)"><path d="M0 -24L20.8 -12L20.8 12L0 24L-20.8 12L-20.8 -12Z" stroke="#3a6ea5" fill="none" stroke-width="2"></path></g><g transform="translate(7 376)"><path d="M0 -19L16.5 -9.5L16.5 9.5L0 19L-16.5 9.5L-16.5 -9.5Z" stroke="#3a6ea5" fill="none" stroke-width="2"></path></g><g transform="translate(832 60)"><path d="M0 -9L7.8 -4.5L7.8 4.5L0 9L-7.8 4.5L-7.8 -4.5Z" stroke="#3a6ea5" fill="none" stroke-width="2"></path></g><g transform="translate(550 161)"><path d="M0 -3L2.6 -1.5L2.6 1.5L0 3L-2.6 1.5L-2.6 -1.5Z" stroke="#3a6ea5" fill="none" stroke-width="2"></path></g><g transform="translate(254 551)"><path d="M0 -9L7.8 -4.5L7.8 4.5L0 9L-7.8 4.5L-7.8 -4.5Z" stroke="#3a6ea5" fill="none" stroke-width="2"></path></g><g transform="translate(82 132)"><path d="M0 -6L5.2 -3L5.2 3L0 6L-5.2 3L-5.2 -3Z" stroke="#3a6ea5" fill="none" stroke-width="2"></path></g><g transform="translate(305 27)"><path d="M0 -4L3.5 -2L3.5 2L0 4L-3.5 2L-3.5 -2Z" stroke="#3a6ea5" fill="none" stroke-width="2"></path></g><g transform="translate(594 117)"><path d="M0 -5L4.3 -2.5L4.3 2.5L0 5L-4.3 2.5L-4.3 -2.5Z" stroke="#3a6ea5" fill="none" stroke-width="2"></path></g><g transform="translate(476 552)"><path d="M0 -18L15.6 -9L15.6 9L0 18L-15.6 9L-15.6 -9Z" stroke="#3a6ea5" fill="none" stroke-width="2"></path></g><g transform="translate(808 490)"><path d="M0 -12L10.4 -6L10.4 6L0 12L-10.4 6L-10.4 -6Z" stroke="#3a6ea5" fill="none" stroke-width="2"></path></g><g transform="translate(315 240)"><path d="M0 -3L2.6 -1.5L2.6 1.5L0 3L-2.6 1.5L-2.6 -1.5Z" stroke="#3a6ea5" fill="none" stroke-width="2"></path></g><g transform="translate(732 557)"><path d="M0 -7L6.1 -3.5L6.1 3.5L0 7L-6.1 3.5L-6.1 -3.5Z" stroke="#3a6ea5" fill="none" stroke-width="2"></path></g><g transform="translate(467 383)"><path d="M0 -5L4.3 -2.5L4.3 2.5L0 5L-4.3 2.5L-4.3 -2.5Z" stroke="#3a6ea5" fill="none" stroke-width="2"></path></g><g transform="translate(453 8)"><path d="M0 -15L13 -7.5L13 7.5L0 15L-13 7.5L-13 -7.5Z" stroke="#3a6ea5" fill="none" stroke-width="2"></path></g><g transform="translate(727 419)"><path d="M0 -24L20.8 -12L20.8 12L0 24L-20.8 12L-20.8 -12Z" stroke="#3a6ea5" fill="none" stroke-width="2"></path></g><g transform="translate(433 106)"><path d="M0 -24L20.8 -12L20.8 12L0 24L-20.8 12L-20.8 -12Z" stroke="#3a6ea5" fill="none" stroke-width="2"></path></g><g transform="translate(277 660)"><path d="M0 -3L2.6 -1.5L2.6 1.5L0 3L-2.6 1.5L-2.6 -1.5Z" stroke="#3a6ea5" fill="none" stroke-width="2"></path></g><g transform="translate(137 481)"><path d="M0 -6L5.2 -3L5.2 3L0 6L-5.2 3L-5.2 -3Z" stroke="#3a6ea5" fill="none" stroke-width="2"></path></g><g transform="translate(98 580)"><path d="M0 -3L2.6 -1.5L2.6 1.5L0 3L-2.6 1.5L-2.6 -1.5Z" stroke="#3a6ea5" fill="none" stroke-width="2"></path></g><g transform="translate(267 308)"><path d="M0 -14L12.1 -7L12.1 7L0 14L-12.1 7L-12.1 -7Z" stroke="#3a6ea5" fill="none" stroke-width="2"></path></g><g transform="translate(652 22)"><path d="M0 -13L11.3 -6.5L11.3 6.5L0 13L-11.3 6.5L-11.3 -6.5Z" stroke="#3a6ea5" fill="none" stroke-width="2"></path></g><g transform="translate(3 575)"><path d="M0 -6L5.2 -3L5.2 3L0 6L-5.2 3L-5.2 -3Z" stroke="#3a6ea5" fill="none" stroke-width="2"></path></g><g transform="translate(41 436)"><path d="M0 -11L9.5 -5.5L9.5 5.5L0 11L-9.5 5.5L-9.5 -5.5Z" stroke="#3a6ea5" fill="none" stroke-width="2"></path></g><g transform="translate(77 502)"><path d="M0 -24L20.8 -12L20.8 12L0 24L-20.8 12L-20.8 -12Z" stroke="#3a6ea5" fill="none" stroke-width="2"></path></g><g transform="translate(689 488)"><path d="M0 -11L9.5 -5.5L9.5 5.5L0 11L-9.5 5.5L-9.5 -5.5Z" stroke="#3a6ea5" fill="none" stroke-width="2"></path></g><g transform="translate(171 563)"><path d="M0 -22L19.1 -11L19.1 11L0 22L-19.1 11L-19.1 -11Z" stroke="#3a6ea5" fill="none" stroke-width="2"></path></g><g transform="translate(339 457)"><path d="M0 -17L14.7 -8.5L14.7 8.5L0 17L-14.7 8.5L-14.7 -8.5Z" stroke="#3a6ea5" fill="none" stroke-width="2"></path></g><g transform="translate(772 628)"><path d="M0 -18L15.6 -9L15.6 9L0 18L-15.6 9L-15.6 -9Z" stroke="#3a6ea5" fill="none" stroke-width="2"></path></g><g transform="translate(765 262)"><path d="M0 -6L5.2 -3L5.2 3L0 6L-5.2 3L-5.2 -3Z" stroke="#3a6ea5" fill="none" stroke-width="2"></path></g><g transform="translate(284 441)"><path d="M0 -23L19.9 -11.5L19.9 11.5L0 23L-19.9 11.5L-19.9 -11.5Z" stroke="#3a6ea5" fill="none" stroke-width="2"></path></g><g transform="translate(180 20)"><path d="M0 -9L7.8 -4.5L7.8 4.5L0 9L-7.8 4.5L-7.8 -4.5Z" stroke="#3a6ea5" fill="none" stroke-width="2"></path></g><g transform="translate(397 57)"><path d="M0 -15L13 -7.5L13 7.5L0 15L-13 7.5L-13 -7.5Z" stroke="#3a6ea5" fill="none" stroke-width="2"></path></g><g transform="translate(373 161)"><path d="M0 -14L12.1 -7L12.1 7L0 14L-12.1 7L-12.1 -7Z" stroke="#3a6ea5" fill="none" stroke-width="2"></path></g><g transform="translate(628 318)"><path d="M0 -12L10.4 -6L10.4 6L0 12L-10.4 6L-10.4 -6Z" stroke="#3a6ea5" fill="none" stroke-width="2"></path></g><g transform="translate(606 218)"><path d="M0 -18L15.6 -9L15.6 9L0 18L-15.6 9L-15.6 -9Z" stroke="#3a6ea5" fill="none" stroke-width="2"></path></g><g transform="translate(423 616)"><path d="M0 -20L17.3 -10L17.3 10L0 20L-17.3 10L-17.3 -10Z" stroke="#3a6ea5" fill="none" stroke-width="2"></path></g><g transform="translate(513 332)"><path d="M0 -17L14.7 -8.5L14.7 8.5L0 17L-14.7 8.5L-14.7 -8.5Z" stroke="#3a6ea5" fill="none" stroke-width="2"></path></g><g transform="translate(390 478)"><path d="M0 -23L19.9 -11.5L19.9 11.5L0 23L-19.9 11.5L-19.9 -11.5Z" stroke="#3a6ea5" fill="none" stroke-width="2"></path></g><g transform="translate(185 346)"><path d="M0 -9L7.8 -4.5L7.8 4.5L0 9L-7.8 4.5L-7.8 -4.5Z" stroke="#3a6ea5" fill="none" stroke-width="2"></path></g><g transform="translate(134 338)"><path d="M0 -19L16.5 -9.5L16.5 9.5L0 19L-16.5 9.5L-16.5 -9.5Z" stroke="#3a6ea5" fill="none" stroke-width="2"></path></g><g transform="translate(601 506)"><path d="M0 -5L4.3 -2.5L4.3 2.5L0 5L-4.3 2.5L-4.3 -2.5Z" stroke="#3a6ea5" fill="none" stroke-width="2"></path></g><g transform="translate(140 117)"><path d="M0 -5L4.3 -2.5L4.3 2.5L0 5L-4.3 2.5L-4.3 -2.5Z" stroke="#3a6ea5" fill="none" stroke-width="2"></path></g><g transform="translate(139 224)"><path d="M0 -3L2.6 -1.5L2.6 1.5L0 3L-2.6 1.5L-2.6 -1.5Z" stroke="#3a6ea5" fill="none" stroke-width="2"></path></g><g transform="translate(573 19)"><path d="M0 -4L3.5 -2L3.5 2L0 4L-3.5 2L-3.5 -2Z" stroke="#3a6ea5" fill="none" stroke-width="2"></path></g><g transform="translate(288 604)"><path d="M0 -4L3.5 -2L3.5 2L0 4L-3.5 2L-3.5 -2Z" stroke="#3a6ea5" fill="none" stroke-width="2"></path></g><g transform="translate(37 104)"><path d="M0 -16L13.9 -8L13.9 8L0 16L-13.9 8L-13.9 -8Z" stroke="#3a6ea5" fill="none" stroke-width="2"></path></g><g transform="translate(801 308)"><path d="M0 -21L18.2 -10.5L18.2 10.5L0 21L-18.2 10.5L-18.2 -10.5Z" stroke="#3a6ea5" fill="none" stroke-width="2"></path></g><g transform="translate(104 6)"><path d="M0 -20L17.3 -10L17.3 10L0 20L-17.3 10L-17.3 -10Z" stroke="#3a6ea5" fill="none" stroke-width="2"></path></g><g transform="translate(703 189)"><path d="M0 -6L5.2 -3L5.2 3L0 6L-5.2 3L-5.2 -3Z" stroke="#3a6ea5" fill="none" stroke-width="2"></path></g><g transform="translate(11 253)"><path d="M0 -11L9.5 -5.5L9.5 5.5L0 11L-9.5 5.5L-9.5 -5.5Z" stroke="#3a6ea5" fill="none" stroke-width="2"></path></g><g transform="translate(769 49)"><path d="M0 -7L6.1 -3.5L6.1 3.5L0 7L-6.1 3.5L-6.1 -3.5Z" stroke="#3a6ea5" fill="none" stroke-width="2"></path></g><g transform="translate(846 639)"><path d="M0 -8L6.9 -4L6.9 4L0 8L-6.9 4L-6.9 -4Z" stroke="#3a6ea5" fill="none" stroke-width="2"></path></g><g transform="translate(644 181)"><path d="M0 -10L8.7 -5L8.7 5L0 10L-8.7 5L-8.7 -5Z" stroke="#3a6ea5" fill="none" stroke-width="2"></path></g><g transform="translate(325 88)"><path d="M0 -4L3.5 -2L3.5 2L0 4L-3.5 2L-3.5 -2Z" stroke="#3a6ea5" fill="none" stroke-width="2"></path></g><g transform="translate(841 579)"><path d="M0 -5L4.3 -2.5L4.3 2.5L0 5L-4.3 2.5L-4.3 -2.5Z" stroke="#3a6ea5" fill="none" stroke-width="2"></path></g><g transform="translate(543 218)"><path d="M0 -11L9.5 -5.5L9.5 5.5L0 11L-9.5 5.5L-9.5 -5.5Z" stroke="#3a6ea5" fill="none" stroke-width="2"></path></g><g transform="translate(582 424)"><path d="M0 -22L19.1 -11L19.1 11L0 22L-19.1 11L-19.1 -11Z" stroke="#3a6ea5" fill="none" stroke-width="2"></path></g><g transform="translate(358 536)"><path d="M0 -11L9.5 -5.5L9.5 5.5L0 11L-9.5 5.5L-9.5 -5.5Z" stroke="#3a6ea5" fill="none" stroke-width="2"></path></g><g transform="translate(20 158)"><path d="M0 -21L18.2 -10.5L18.2 10.5L0 21L-18.2 10.5L-18.2 -10.5Z" stroke="#3a6ea5" fill="none" stroke-width="2"></path></g><g transform="translate(892 13)"><path d="M0 -3L2.6 -1.5L2.6 1.5L0 3L-2.6 1.5L-2.6 -1.5Z" stroke="#3a6ea5" fill="none" stroke-width="2"></path></g><g transform="translate(216 477)"><path d="M0 -3L2.6 -1.5L2.6 1.5L0 3L-2.6 1.5L-2.6 -1.5Z" stroke="#3a6ea5" fill="none" stroke-width="2"></path></g><g transform="translate(424 325)"><path d="M0 -3L2.6 -1.5L2.6 1.5L0 3L-2.6 1.5L-2.6 -1.5Z" stroke="#3a6ea5" fill="none" stroke-width="2"></path></g><g transform="translate(660 561)"><path d="M0 -7L6.1 -3.5L6.1 3.5L0 7L-6.1 3.5L-6.1 -3.5Z" stroke="#3a6ea5" fill="none" stroke-width="2"></path></g><g transform="translate(875 203)"><path d="M0 -7L6.1 -3.5L6.1 3.5L0 7L-6.1 3.5L-6.1 -3.5Z" stroke="#3a6ea5" fill="none" stroke-width="2"></path></g><g transform="translate(386 382)"><path d="M0 -6L5.2 -3L5.2 3L0 6L-5.2 3L-5.2 -3Z" stroke="#3a6ea5" fill="none" stroke-width="2"></path></g><g transform="translate(237 359)"><path d="M0 -4L3.5 -2L3.5 2L0 4L-3.5 2L-3.5 -2Z" stroke="#3a6ea5" fill="none" stroke-width="2"></path></g><g transform="translate(82 222)"><path d="M0 -19L16.5 -9.5L16.5 9.5L0 19L-16.5 9.5L-16.5 -9.5Z" stroke="#3a6ea5" fill="none" stroke-width="2"></path></g><g transform="translate(326 393)"><path d="M0 -18L15.6 -9L15.6 9L0 18L-15.6 9L-15.6 -9Z" stroke="#3a6ea5" fill="none" stroke-width="2"></path></g><g transform="translate(266 202)"><path d="M0 -16L13.9 -8L13.9 8L0 16L-13.9 8L-13.9 -8Z" stroke="#3a6ea5" fill="none" stroke-width="2"></path></g><g transform="translate(291 512)"><path d="M0 -11L9.5 -5.5L9.5 5.5L0 11L-9.5 5.5L-9.5 -5.5Z" stroke="#3a6ea5" fill="none" stroke-width="2"></path></g><g transform="translate(653 366)"><path d="M0 -3L2.6 -1.5L2.6 1.5L0 3L-2.6 1.5L-2.6 -1.5Z" stroke="#3a6ea5" fill="none" stroke-width="2"></path></g><g transform="translate(190 279)"><path d="M0 -13L11.3 -6.5L11.3 6.5L0 13L-11.3 6.5L-11.3 -6.5Z" stroke="#3a6ea5" fill="none" stroke-width="2"></path></g><g transform="translate(456 452)"><path d="M0 -7L6.1 -3.5L6.1 3.5L0 7L-6.1 3.5L-6.1 -3.5Z" stroke="#3a6ea5" fill="none" stroke-width="2"></path></g><g transform="translate(508 593)"><path d="M0 -3L2.6 -1.5L2.6 1.5L0 3L-2.6 1.5L-2.6 -1.5Z" stroke="#3a6ea5" fill="none" stroke-width="2"></path></g><g transform="translate(580 340)"><path d="M0 -24L20.8 -12L20.8 12L0 24L-20.8 12L-20.8 -12Z" stroke="#3a6ea5" fill="none" stroke-width="2"></path></g><g transform="translate(750 342)"><path d="M0 -4L3.5 -2L3.5 2L0 4L-3.5 2L-3.5 -2Z" stroke="#3a6ea5" fill="none" stroke-width="2"></path></g><g transform="translate(823 196)"><path d="M0 -14L12.1 -7L12.1 7L0 14L-12.1 7L-12.1 -7Z" stroke="#3a6ea5" fill="none" stroke-width="2"></path></g><g transform="translate(882 310)"><path d="M0 -6L5.2 -3L5.2 3L0 6L-5.2 3L-5.2 -3Z" stroke="#3a6ea5" fill="none" stroke-width="2"></path></g><g transform="translate(508 132)"><path d="M0 -5L4.3 -2.5L4.3 2.5L0 5L-4.3 2.5L-4.3 -2.5Z" stroke="#3a6ea5" fill="none" stroke-width="2"></path></g><g transform="translate(660 647)"><path d="M0 -11L9.5 -5.5L9.5 5.5L0 11L-9.5 5.5L-9.5 -5.5Z" stroke="#3a6ea5" fill="none" stroke-width="2"></path></g><g transform="translate(139 667)"><path d="M0 -15L13 -7.5L13 7.5L0 15L-13 7.5L-13 -7.5Z" stroke="#3a6ea5" fill="none" stroke-width="2"></path></g><g transform="translate(460 245)"><path d="M0 -17L14.7 -8.5L14.7 8.5L0 17L-14.7 8.5L-14.7 -8.5Z" stroke="#3a6ea5" fill="none" stroke-width="2"></path></g><g transform="translate(603 601)"><path d="M0 -5L4.3 -2.5L4.3 2.5L0 5L-4.3 2.5L-4.3 -2.5Z" stroke="#3a6ea5" fill="none" stroke-width="2"></path></g><g transform="translate(709 108)"><path d="M0 -9L7.8 -4.5L7.8 4.5L0 9L-7.8 4.5L-7.8 -4.5Z" stroke="#3a6ea5" fill="none" stroke-width="2"></path></g><g transform="translate(41 334)"><path d="M0 -7L6.1 -3.5L6.1 3.5L0 7L-6.1 3.5L-6.1 -3.5Z" stroke="#3a6ea5" fill="none" stroke-width="2"></path></g><g transform="translate(407 668)"><path d="M0 -11L9.5 -5.5L9.5 5.5L0 11L-9.5 5.5L-9.5 -5.5Z" stroke="#3a6ea5" fill="none" stroke-width="2"></path></g><g transform="translate(194 635)"><path d="M0 -7L6.1 -3.5L6.1 3.5L0 7L-6.1 3.5L-6.1 -3.5Z" stroke="#3a6ea5" fill="none" stroke-width="2"></path></g><g transform="translate(128 285)"><path d="M0 -19L16.5 -9.5L16.5 9.5L0 19L-16.5 9.5L-16.5 -9.5Z" stroke="#3a6ea5" fill="none" stroke-width="2"></path></g><g transform="translate(871 101)"><path d="M0 -3L2.6 -1.5L2.6 1.5L0 3L-2.6 1.5L-2.6 -1.5Z" stroke="#3a6ea5" fill="none" stroke-width="2"></path></g><g transform="translate(639 465)"><path d="M0 -21L18.2 -10.5L18.2 10.5L0 21L-18.2 10.5L-18.2 -10.5Z" stroke="#3a6ea5" fill="none" stroke-width="2"></path></g><g transform="translate(555 538)"><path d="M0 -9L7.8 -4.5L7.8 4.5L0 9L-7.8 4.5L-7.8 -4.5Z" stroke="#3a6ea5" fill="none" stroke-width="2"></path></g><g transform="translate(146 615)"><path d="M0 -13L11.3 -6.5L11.3 6.5L0 13L-11.3 6.5L-11.3 -6.5Z" stroke="#3a6ea5" fill="none" stroke-width="2"></path></g><g transform="translate(495 78)"><path d="M0 -15L13 -7.5L13 7.5L0 15L-13 7.5L-13 -7.5Z" stroke="#3a6ea5" fill="none" stroke-width="2"></path></g><g transform="translate(688 254)"><path d="M0 -18L15.6 -9L15.6 9L0 18L-15.6 9L-15.6 -9Z" stroke="#3a6ea5" fill="none" stroke-width="2"></path></g><g transform="translate(769 120)"><path d="M0 -5L4.3 -2.5L4.3 2.5L0 5L-4.3 2.5L-4.3 -2.5Z" stroke="#3a6ea5" fill="none" stroke-width="2"></path></g><g transform="translate(43 608)"><path d="M0 -16L13.9 -8L13.9 8L0 16L-13.9 8L-13.9 -8Z" stroke="#3a6ea5" fill="none" stroke-width="2"></path></g><g transform="translate(176 78)"><path d="M0 -20L17.3 -10L17.3 10L0 20L-17.3 10L-17.3 -10Z" stroke="#3a6ea5" fill="none" stroke-width="2"></path></g><g transform="translate(462 163)"><path d="M0 -21L18.2 -10.5L18.2 10.5L0 21L-18.2 10.5L-18.2 -10.5Z" stroke="#3a6ea5" fill="none" stroke-width="2"></path></g><g transform="translate(761 174)"><path d="M0 -6L5.2 -3L5.2 3L0 6L-5.2 3L-5.2 -3Z" stroke="#3a6ea5" fill="none" stroke-width="2"></path></g><g transform="translate(304 163)"><path d="M0 -16L13.9 -8L13.9 8L0 16L-13.9 8L-13.9 -8Z" stroke="#3a6ea5" fill="none" stroke-width="2"></path></g><g transform="translate(10 31)"><path d="M0 -6L5.2 -3L5.2 3L0 6L-5.2 3L-5.2 -3Z" stroke="#3a6ea5" fill="none" stroke-width="2"></path></g><g transform="translate(250 10)"><path d="M0 -11L9.5 -5.5L9.5 5.5L0 11L-9.5 5.5L-9.5 -5.5Z" stroke="#3a6ea5" fill="none" stroke-width="2"></path></g><g transform="translate(141 418)"><path d="M0 -17L14.7 -8.5L14.7 8.5L0 17L-14.7 8.5L-14.7 -8.5Z" stroke="#3a6ea5" fill="none" stroke-width="2"></path></g><g transform="translate(352 616)"><path d="M0 -9L7.8 -4.5L7.8 4.5L0 9L-7.8 4.5L-7.8 -4.5Z" stroke="#3a6ea5" fill="none" stroke-width="2"></path></g><g transform="translate(419 557)"><path d="M0 -5L4.3 -2.5L4.3 2.5L0 5L-4.3 2.5L-4.3 -2.5Z" stroke="#3a6ea5" fill="none" stroke-width="2"></path></g><g transform="translate(783 536)"><path d="M0 -3L2.6 -1.5L2.6 1.5L0 3L-2.6 1.5L-2.6 -1.5Z" stroke="#3a6ea5" fill="none" stroke-width="2"></path></g><g transform="translate(67 277)"><path d="M0 -16L13.9 -8L13.9 8L0 16L-13.9 8L-13.9 -8Z" stroke="#3a6ea5" fill="none" stroke-width="2"></path></g><g transform="translate(712 662)"><path d="M0 -21L18.2 -10.5L18.2 10.5L0 21L-18.2 10.5L-18.2 -10.5Z" stroke="#3a6ea5" fill="none" stroke-width="2"></path></g><g transform="translate(525 391)"><path d="M0 -12L10.4 -6L10.4 6L0 12L-10.4 6L-10.4 -6Z" stroke="#3a6ea5" fill="none" stroke-width="2"></path></g><g transform="translate(217 229)"><path d="M0 -5L4.3 -2.5L4.3 2.5L0 5L-4.3 2.5L-4.3 -2.5Z" stroke="#3a6ea5" fill="none" stroke-width="2"></path></g><g transform="translate(758 461)"><path d="M0 -4L3.5 -2L3.5 2L0 4L-3.5 2L-3.5 -2Z" stroke="#3a6ea5" fill="none" stroke-width="2"></path></g><g transform="translate(499 673)"><path d="M0 -16L13.9 -8L13.9 8L0 16L-13.9 8L-13.9 -8Z" stroke="#3a6ea5" fill="none" stroke-width="2"></path></g><g transform="translate(651 126)"><path d="M0 -5L4.3 -2.5L4.3 2.5L0 5L-4.3 2.5L-4.3 -2.5Z" stroke="#3a6ea5" fill="none" stroke-width="2"></path></g><g transform="translate(519 19)"><path d="M0 -15L13 -7.5L13 7.5L0 15L-13 7.5L-13 -7.5Z" stroke="#3a6ea5" fill="none" stroke-width="2"></path></g><g transform="translate(249 147)"><path d="M0 -6L5.2 -3L5.2 3L0 6L-5.2 3L-5.2 -3Z" stroke="#3a6ea5" fill="none" stroke-width="2"></path></g><g transform="translate(878 530)"><path d="M0 -3L2.6 -1.5L2.6 1.5L0 3L-2.6 1.5L-2.6 -1.5Z" stroke="#3a6ea5" fill="none" stroke-width="2"></path></g><g transform="translate(891 606)"><path d="M0 -19L16.5 -9.5L16.5 9.5L0 19L-16.5 9.5L-16.5 -9.5Z" stroke="#3a6ea5" fill="none" stroke-width="2"></path></g><g transform="translate(303 346)"><path d="M0 -21L18.2 -10.5L18.2 10.5L0 21L-18.2 10.5L-18.2 -10.5Z" stroke="#3a6ea5" fill="none" stroke-width="2"></path></g><g transform="translate(806 370)"><path d="M0 -7L6.1 -3.5L6.1 3.5L0 7L-6.1 3.5L-6.1 -3.5Z" stroke="#3a6ea5" fill="none" stroke-width="2"></path></g><g transform="translate(89 388)"><path d="M0 -16L13.9 -8L13.9 8L0 16L-13.9 8L-13.9 -8Z" stroke="#3a6ea5" fill="none" stroke-width="2"></path></g><g transform="translate(377 106)"><path d="M0 -22L19.1 -11L19.1 11L0 22L-19.1 11L-19.1 -11Z" stroke="#3a6ea5" fill="none" stroke-width="2"></path></g><g transform="translate(21 491)"><path d="M0 -24L20.8 -12L20.8 12L0 24L-20.8 12L-20.8 -12Z" stroke="#3a6ea5" fill="none" stroke-width="2"></path></g><g transform="translate(891 254)"><path d="M0 -11L9.5 -5.5L9.5 5.5L0 11L-9.5 5.5L-9.5 -5.5Z" stroke="#3a6ea5" fill="none" stroke-width="2"></path></g><g transform="translate(124 175)"><path d="M0 -23L19.9 -11.5L19.9 11.5L0 23L-19.9 11.5L-19.9 -11.5Z" stroke="#3a6ea5" fill="none" stroke-width="2"></path></g><g transform="translate(680 307)"><path d="M0 -21L18.2 -10.5L18.2 10.5L0 21L-18.2 10.5L-18.2 -10.5Z" stroke="#3a6ea5" fill="none" stroke-width="2"></path></g><g transform="translate(827 6)"><path d="M0 -22L19.1 -11L19.1 11L0 22L-19.1 11L-19.1 -11Z" stroke="#3a6ea5" fill="none" stroke-width="2"></path></g><g transform="translate(813 424)"><path d="M0 -9L7.8 -4.5L7.8 4.5L0 9L-7.8 4.5L-7.8 -4.5Z" stroke="#3a6ea5" fill="none" stroke-width="2"></path></g><g transform="translate(617 65)"><path d="M0 -13L11.3 -6.5L11.3 6.5L0 13L-11.3 6.5L-11.3 -6.5Z" stroke="#3a6ea5" fill="none" stroke-width="2"></path></g><g transform="translate(706 369)"><path d="M0 -14L12.1 -7L12.1 7L0 14L-12.1 7L-12.1 -7Z" stroke="#3a6ea5" fill="none" stroke-width="2"></path></g><g transform="translate(508 508)"><path d="M0 -15L13 -7.5L13 7.5L0 15L-13 7.5L-13 -7.5Z" stroke="#3a6ea5" fill="none" stroke-width="2"></path></g><g transform="translate(673 423)"><path d="M0 -21L18.2 -10.5L18.2 10.5L0 21L-18.2 10.5L-18.2 -10.5Z" stroke="#3a6ea5" fill="none" stroke-width="2"></path></g><g transform="translate(455 504)"><path d="M0 -21L18.2 -10.5L18.2 10.5L0 21L-18.2 10.5L-18.2 -10.5Z" stroke="#3a6ea5" fill="none" stroke-width="2"></path></g><g transform="translate(125 536)"><path d="M0 -11L9.5 -5.5L9.5 5.5L0 11L-9.5 5.5L-9.5 -5.5Z" stroke="#3a6ea5" fill="none" stroke-width="2"></path></g><g transform="translate(868 361)"><path d="M0 -8L6.9 -4L6.9 4L0 8L-6.9 4L-6.9 -4Z" stroke="#3a6ea5" fill="none" stroke-width="2"></path></g><g transform="translate(394 271)"><path d="M0 -12L10.4 -6L10.4 6L0 12L-10.4 6L-10.4 -6Z" stroke="#3a6ea5" fill="none" stroke-width="2"></path></g><g transform="translate(358 17)"><path d="M0 -20L17.3 -10L17.3 10L0 20L-17.3 10L-17.3 -10Z" stroke="#3a6ea5" fill="none" stroke-width="2"></path></g><g transform="translate(893 667)"><path d="M0 -18L15.6 -9L15.6 9L0 18L-15.6 9L-15.6 -9Z" stroke="#3a6ea5" fill="none" stroke-width="2"></path></g><g transform="translate(62 43)"><path d="M0 -12L10.4 -6L10.4 6L0 12L-10.4 6L-10.4 -6Z" stroke="#3a6ea5" fill="none" stroke-width="2"></path></g><g transform="translate(898 149)"><path d="M0 -9L7.8 -4.5L7.8 4.5L0 9L-7.8 4.5L-7.8 -4.5Z" stroke="#3a6ea5" fill="none" stroke-width="2"></path></g><g transform="translate(228 596)"><path d="M0 -17L14.7 -8.5L14.7 8.5L0 17L-14.7 8.5L-14.7 -8.5Z" stroke="#3a6ea5" fill="none" stroke-width="2"></path></g><g transform="translate(229 61)"><path d="M0 -16L13.9 -8L13.9 8L0 16L-13.9 8L-13.9 -8Z" stroke="#3a6ea5" fill="none" stroke-width="2"></path></g><g transform="translate(549 85)"><path d="M0 -7L6.1 -3.5L6.1 3.5L0 7L-6.1 3.5L-6.1 -3.5Z" stroke="#3a6ea5" fill="none" stroke-width="2"></path></g><g transform="translate(606 270)"><path d="M0 -17L14.7 -8.5L14.7 8.5L0 17L-14.7 8.5L-14.7 -8.5Z" stroke="#3a6ea5" fill="none" stroke-width="2"></path></g></g></svg>