<svg id="visual" viewBox="0 0 900 600" width="900" height="600" xmlns="http://www.w3.org/2000/svg" xmlns:xlink="http://www.w3.org/1999/xlink" version="1.1"><rect width="900" height="600" fill="#fffff9"></rect><g><g transform="translate(148 310)"><path d="M0 -26.7L23.1 -13.3L23.1 13.3L0 26.7L-23.1 13.3L-23.1 -13.3Z" fill="none" stroke="#3a6ea5" stroke-width="2"></path></g><g transform="translate(319 186)"><path d="M0 -17L14.7 -8.5L14.7 8.5L0 17L-14.7 8.5L-14.7 -8.5Z" fill="none" stroke="#3a6ea5" stroke-width="2"></path></g><g transform="translate(271 136)"><path d="M0 -13L11.3 -6.5L11.3 6.5L0 13L-11.3 6.5L-11.3 -6.5Z" fill="none" stroke="#3a6ea5" stroke-width="2"></path></g><g transform="translate(799 111)"><path d="M0 -17L14.7 -8.5L14.7 8.5L0 17L-14.7 8.5L-14.7 -8.5Z" stroke="#3a6ea5" fill="none" stroke-width="2"></path></g><g transform="translate(284 526)"><path d="M0 -24L20.8 -12L20.8 12L0 24L-20.8 12L-20.8 -12Z" stroke="#3a6ea5" fill="none" stroke-width="2"></path></g><g transform="translate(414 359)"><path d="M0 -18L15.6 -9L15.6 9L0 18L-15.6 9L-15.6 -9Z" stroke="#3a6ea5" fill="none" stroke-width="2"></path></g><g transform="translate(799 202)"><path d="M0 -18L15.6 -9L15.6 9L0 18L-15.6 9L-15.6 -9Z" stroke="#3a6ea5" fill="none" stroke-width="2"></path></g><g transform="translate(150 492)"><path d="M0 -21L18.2 -10.5L18.2 10.5L0 21L-18.2 10.5L-18.2 -10.5Z" stroke="#3a6ea5" fill="none" stroke-width="2"></path></g><g transform="translate(549 585)"><path d="M0 -17L14.7 -8.5L14.7 8.5L0 17L-14.7 8.5L-14.7 -8.5Z" stroke="#3a6ea5" fill="none" stroke-width="2"></path></g><g transform="translate(187 270)"><path d="M0 -22L19.1 -11L19.1 11L0 22L-19.1 11L-19.1 -11Z" stroke="#3a6ea5" fill="none" stroke-width="2"></path></g><g transform="translate(277 305)"><path d="M0 -25L21.7 -12.5L21.7 12.5L0 25L-21.7 12.5L-21.7 -12.5Z" stroke="#3a6ea5" fill="none" stroke-width="2"></path></g><g transform="translate(316 476)"><path d="M0 -20L17.3 -10L17.3 10L0 20L-17.3 10L-17.3 -10Z" stroke="#3a6ea5" fill="none" stroke-width="2"></path></g><g transform="translate(654 210)"><path d="M0 -18L15.6 -9L15.6 9L0 18L-15.6 9L-15.6 -9Z" stroke="#3a6ea5" fill="none" stroke-width="2"></path></g><g transform="translate(457 596)"><path d="M0 -15L13 -7.5L13 7.5L0 15L-13 7.5L-13 -7.5Z" stroke="#3a6ea5" fill="none" stroke-width="2"></path></g><g transform="translate(399 264)"><path d="M0 -21L18.2 -10.5L18.2 10.5L0 21L-18.2 10.5L-18.2 -10.5Z" stroke="#3a6ea5" fill="none" stroke-width="2"></path></g><g transform="translate(306 370)"><path d="M0 -24L20.8 -12L20.8 12L0 24L-20.8 12L-20.8 -12Z" stroke="#3a6ea5" fill="none" stroke-width="2"></path></g><g transform="translate(28 556)"><path d="M0 -19L16.5 -9.5L16.5 9.5L0 19L-16.5 9.5L-16.5 -9.5Z" stroke="#3a6ea5" fill="none" stroke-width="2"></path></g><g transform="translate(373 108)"><path d="M0 -20L17.3 -10L17.3 10L0 20L-17.3 10L-17.3 -10Z" stroke="#3a6ea5" fill="none" stroke-width="2"></path></g><g transform="translate(871 466)"><path d="M0 -24L20.8 -12L20.8 12L0 24L-20.8 12L-20.8 -12Z" stroke="#3a6ea5" fill="none" stroke-width="2"></path></g><g transform="translate(636 544)"><path d="M0 -16L13.9 -8L13.9 8L0 16L-13.9 8L-13.9 -8Z" stroke="#3a6ea5" fill="none" stroke-width="2"></path></g><g transform="translate(471 162)"><path d="M0 -20L17.3 -10L17.3 10L0 20L-17.3 10L-17.3 -10Z" stroke="#3a6ea5" fill="none" stroke-width="2"></path></g><g transform="translate(738 540)"><path d="M0 -21L18.2 -10.5L18.2 10.5L0 21L-18.2 10.5L-18.2 -10.5Z" stroke="#3a6ea5" fill="none" stroke-width="2"></path></g><g transform="translate(235 84)"><path d="M0 -24L20.8 -12L20.8 12L0 24L-20.8 12L-20.8 -12Z" stroke="#3a6ea5" fill="none" stroke-width="2"></path></g><g transform="translate(737 189)"><path d="M0 -21L18.2 -10.5L18.2 10.5L0 21L-18.2 10.5L-18.2 -10.5Z" stroke="#3a6ea5" fill="none" stroke-width="2"></path></g><g transform="translate(593 149)"><path d="M0 -13L11.3 -6.5L11.3 6.5L0 13L-11.3 6.5L-11.3 -6.5Z" stroke="#3a6ea5" fill="none" stroke-width="2"></path></g><g transform="translate(161 77)"><path d="M0 -24L20.8 -12L20.8 12L0 24L-20.8 12L-20.8 -12Z" stroke="#3a6ea5" fill="none" stroke-width="2"></path></g><g transform="translate(46 24)"><path d="M0 -24L20.8 -12L20.8 12L0 24L-20.8 12L-20.8 -12Z" stroke="#3a6ea5" fill="none" stroke-width="2"></path></g><g transform="translate(800 24)"><path d="M0 -18L15.6 -9L15.6 9L0 18L-15.6 9L-15.6 -9Z" stroke="#3a6ea5" fill="none" stroke-width="2"></path></g><g transform="translate(856 312)"><path d="M0 -14L12.1 -7L12.1 7L0 14L-12.1 7L-12.1 -7Z" stroke="#3a6ea5" fill="none" stroke-width="2"></path></g><g transform="translate(889 76)"><path d="M0 -20L17.3 -10L17.3 10L0 20L-17.3 10L-17.3 -10Z" stroke="#3a6ea5" fill="none" stroke-width="2"></path></g><g transform="translate(791 286)"><path d="M0 -25L21.7 -12.5L21.7 12.5L0 25L-21.7 12.5L-21.7 -12.5Z" stroke="#3a6ea5" fill="none" stroke-width="2"></path></g><g transform="translate(682 288)"><path d="M0 -20L17.3 -10L17.3 10L0 20L-17.3 10L-17.3 -10Z" stroke="#3a6ea5" fill="none" stroke-width="2"></path></g><g transform="translate(826 569)"><path d="M0 -20L17.3 -10L17.3 10L0 20L-17.3 10L-17.3 -10Z" stroke="#3a6ea5" fill="none" stroke-width="2"></path></g><g transform="translate(344 420)"><path d="M0 -18L15.6 -9L15.6 9L0 18L-15.6 9L-15.6 -9Z" stroke="#3a6ea5" fill="none" stroke-width="2"></path></g><g transform="translate(72 352)"><path d="M0 -23L19.9 -11.5L19.9 11.5L0 23L-19.9 11.5L-19.9 -11.5Z" stroke="#3a6ea5" fill="none" stroke-width="2"></path></g><g transform="translate(747 10)"><path d="M0 -25L21.7 -12.5L21.7 12.5L0 25L-21.7 12.5L-21.7 -12.5Z" stroke="#3a6ea5" fill="none" stroke-width="2"></path></g><g transform="translate(566 437)"><path d="M0 -19L16.5 -9.5L16.5 9.5L0 19L-16.5 9.5L-16.5 -9.5Z" stroke="#3a6ea5" fill="none" stroke-width="2"></path></g><g transform="translate(181 414)"><path d="M0 -20L17.3 -10L17.3 10L0 20L-17.3 10L-17.3 -10Z" stroke="#3a6ea5" fill="none" stroke-width="2"></path></g><g transform="translate(23 281)"><path d="M0 -22L19.1 -11L19.1 11L0 22L-19.1 11L-19.1 -11Z" stroke="#3a6ea5" fill="none" stroke-width="2"></path></g><g transform="translate(632 437)"><path d="M0 -22L19.1 -11L19.1 11L0 22L-19.1 11L-19.1 -11Z" stroke="#3a6ea5" fill="none" stroke-width="2"></path></g><g transform="translate(362 19)"><path d="M0 -15L13 -7.5L13 7.5L0 15L-13 7.5L-13 -7.5Z" stroke="#3a6ea5" fill="none" stroke-width="2"></path></g><g transform="translate(631 17)"><path d="M0 -18L15.6 -9L15.6 9L0 18L-15.6 9L-15.6 -9Z" stroke="#3a6ea5" fill="none" stroke-width="2"></path></g><g transform="translate(230 228)"><path d="M0 -24L20.8 -12L20.8 12L0 24L-20.8 12L-20.8 -12Z" stroke="#3a6ea5" fill="none" stroke-width="2"></path></g><g transform="translate(468 221)"><path d="M0 -16L13.9 -8L13.9 8L0 16L-13.9 8L-13.9 -8Z" stroke="#3a6ea5" fill="none" stroke-width="2"></path></g><g transform="translate(676 499)"><path d="M0 -19L16.5 -9.5L16.5 9.5L0 19L-16.5 9.5L-16.5 -9.5Z" stroke="#3a6ea5" fill="none" stroke-width="2"></path></g><g transform="translate(178 595)"><path d="M0 -20L17.3 -10L17.3 10L0 20L-17.3 10L-17.3 -10Z" stroke="#3a6ea5" fill="none" stroke-width="2"></path></g><g transform="translate(401 209)"><path d="M0 -14L12.1 -7L12.1 7L0 14L-12.1 7L-12.1 -7Z" stroke="#3a6ea5" fill="none" stroke-width="2"></path></g><g transform="translate(546 280)"><path d="M0 -25L21.7 -12.5L21.7 12.5L0 25L-21.7 12.5L-21.7 -12.5Z" stroke="#3a6ea5" fill="none" stroke-width="2"></path></g><g transform="translate(571 372)"><path d="M0 -21L18.2 -10.5L18.2 10.5L0 21L-18.2 10.5L-18.2 -10.5Z" stroke="#3a6ea5" fill="none" stroke-width="2"></path></g><g transform="translate(502 94)"><path d="M0 -14L12.1 -7L12.1 7L0 14L-12.1 7L-12.1 -7Z" stroke="#3a6ea5" fill="none" stroke-width="2"></path></g><g transform="translate(804 362)"><path d="M0 -25L21.7 -12.5L21.7 12.5L0 25L-21.7 12.5L-21.7 -12.5Z" stroke="#3a6ea5" fill="none" stroke-width="2"></path></g><g transform="translate(456 288)"><path d="M0 -14L12.1 -7L12.1 7L0 14L-12.1 7L-12.1 -7Z" stroke="#3a6ea5" fill="none" stroke-width="2"></path></g><g transform="translate(157 213)"><path d="M0 -13L11.3 -6.5L11.3 6.5L0 13L-11.3 6.5L-11.3 -6.5Z" stroke="#3a6ea5" fill="none" stroke-width="2"></path></g><g transform="translate(123 373)"><path d="M0 -21L18.2 -10.5L18.2 10.5L0 21L-18.2 10.5L-18.2 -10.5Z" stroke="#3a6ea5" fill="none" stroke-width="2"></path></g><g transform="translate(12 387)"><path d="M0 -21L18.2 -10.5L18.2 10.5L0 21L-18.2 10.5L-18.2 -10.5Z" stroke="#3a6ea5" fill="none" stroke-width="2"></path></g><g transform="translate(688 589)"><path d="M0 -17L14.7 -8.5L14.7 8.5L0 17L-14.7 8.5L-14.7 -8.5Z" stroke="#3a6ea5" fill="none" stroke-width="2"></path></g><g transform="translate(96 279)"><path d="M0 -22L19.1 -11L19.1 11L0 22L-19.1 11L-19.1 -11Z" stroke="#3a6ea5" fill="none" stroke-width="2"></path></g><g transform="translate(395 563)"><path d="M0 -15L13 -7.5L13 7.5L0 15L-13 7.5L-13 -7.5Z" stroke="#3a6ea5" fill="none" stroke-width="2"></path></g><g transform="translate(631 339)"><path d="M0 -19L16.5 -9.5L16.5 9.5L0 19L-16.5 9.5L-16.5 -9.5Z" stroke="#3a6ea5" fill="none" stroke-width="2"></path></g><g transform="translate(124 25)"><path d="M0 -18L15.6 -9L15.6 9L0 18L-15.6 9L-15.6 -9Z" stroke="#3a6ea5" fill="none" stroke-width="2"></path></g><g transform="translate(743 593)"><path d="M0 -14L12.1 -7L12.1 7L0 14L-12.1 7L-12.1 -7Z" stroke="#3a6ea5" fill="none" stroke-width="2"></path></g><g transform="translate(9 102)"><path d="M0 -14L12.1 -7L12.1 7L0 14L-12.1 7L-12.1 -7Z" stroke="#3a6ea5" fill="none" stroke-width="2"></path></g><g transform="translate(739 408)"><path d="M0 -15L13 -7.5L13 7.5L0 15L-13 7.5L-13 -7.5Z" stroke="#3a6ea5" fill="none" stroke-width="2"></path></g><g transform="translate(323 596)"><path d="M0 -24L20.8 -12L20.8 12L0 24L-20.8 12L-20.8 -12Z" stroke="#3a6ea5" fill="none" stroke-width="2"></path></g><g transform="translate(786 489)"><path d="M0 -22L19.1 -11L19.1 11L0 22L-19.1 11L-19.1 -11Z" stroke="#3a6ea5" fill="none" stroke-width="2"></path></g><g transform="translate(184 536)"><path d="M0 -25L21.7 -12.5L21.7 12.5L0 25L-21.7 12.5L-21.7 -12.5Z" stroke="#3a6ea5" fill="none" stroke-width="2"></path></g><g transform="translate(88 144)"><path d="M0 -24L20.8 -12L20.8 12L0 24L-20.8 12L-20.8 -12Z" stroke="#3a6ea5" fill="none" stroke-width="2"></path></g><g transform="translate(81 65)"><path d="M0 -21L18.2 -10.5L18.2 10.5L0 21L-18.2 10.5L-18.2 -10.5Z" stroke="#3a6ea5" fill="none" stroke-width="2"></path></g><g transform="translate(180 140)"><path d="M0 -19L16.5 -9.5L16.5 9.5L0 19L-16.5 9.5L-16.5 -9.5Z" stroke="#3a6ea5" fill="none" stroke-width="2"></path></g><g transform="translate(48 216)"><path d="M0 -23L19.9 -11.5L19.9 11.5L0 23L-19.9 11.5L-19.9 -11.5Z" stroke="#3a6ea5" fill="none" stroke-width="2"></path></g><g transform="translate(370 475)"><path d="M0 -21L18.2 -10.5L18.2 10.5L0 21L-18.2 10.5L-18.2 -10.5Z" stroke="#3a6ea5" fill="none" stroke-width="2"></path></g><g transform="translate(510 497)"><path d="M0 -21L18.2 -10.5L18.2 10.5L0 21L-18.2 10.5L-18.2 -10.5Z" stroke="#3a6ea5" fill="none" stroke-width="2"></path></g><g transform="translate(855 125)"><path d="M0 -15L13 -7.5L13 7.5L0 15L-13 7.5L-13 -7.5Z" stroke="#3a6ea5" fill="none" stroke-width="2"></path></g><g transform="translate(238 350)"><path d="M0 -18L15.6 -9L15.6 9L0 18L-15.6 9L-15.6 -9Z" stroke="#3a6ea5" fill="none" stroke-width="2"></path></g><g transform="translate(47 440)"><path d="M0 -24L20.8 -12L20.8 12L0 24L-20.8 12L-20.8 -12Z" stroke="#3a6ea5" fill="none" stroke-width="2"></path></g><g transform="translate(691 4)"><path d="M0 -18L15.6 -9L15.6 9L0 18L-15.6 9L-15.6 -9Z" stroke="#3a6ea5" fill="none" stroke-width="2"></path></g><g transform="translate(340 267)"><path d="M0 -14L12.1 -7L12.1 7L0 14L-12.1 7L-12.1 -7Z" stroke="#3a6ea5" fill="none" stroke-width="2"></path></g><g transform="translate(2 489)"><path d="M0 -23L19.9 -11.5L19.9 11.5L0 23L-19.9 11.5L-19.9 -11.5Z" stroke="#3a6ea5" fill="none" stroke-width="2"></path></g><g transform="translate(583 212)"><path d="M0 -17L14.7 -8.5L14.7 8.5L0 17L-14.7 8.5L-14.7 -8.5Z" stroke="#3a6ea5" fill="none" stroke-width="2"></path></g><g transform="translate(891 539)"><path d="M0 -16L13.9 -8L13.9 8L0 16L-13.9 8L-13.9 -8Z" stroke="#3a6ea5" fill="none" stroke-width="2"></path></g><g transform="translate(277 437)"><path d="M0 -25L21.7 -12.5L21.7 12.5L0 25L-21.7 12.5L-21.7 -12.5Z" stroke="#3a6ea5" fill="none" stroke-width="2"></path></g><g transform="translate(861 19)"><path d="M0 -18L15.6 -9L15.6 9L0 18L-15.6 9L-15.6 -9Z" stroke="#3a6ea5" fill="none" stroke-width="2"></path></g><g transform="translate(243 483)"><path d="M0 -16L13.9 -8L13.9 8L0 16L-13.9 8L-13.9 -8Z" stroke="#3a6ea5" fill="none" stroke-width="2"></path></g><g transform="translate(895 273)"><path d="M0 -15L13 -7.5L13 7.5L0 15L-13 7.5L-13 -7.5Z" stroke="#3a6ea5" fill="none" stroke-width="2"></path></g><g transform="translate(284 229)"><path d="M0 -22L19.1 -11L19.1 11L0 22L-19.1 11L-19.1 -11Z" stroke="#3a6ea5" fill="none" stroke-width="2"></path></g><g transform="translate(618 268)"><path d="M0 -21L18.2 -10.5L18.2 10.5L0 21L-18.2 10.5L-18.2 -10.5Z" stroke="#3a6ea5" fill="none" stroke-width="2"></path></g><g transform="translate(706 133)"><path d="M0 -19L16.5 -9.5L16.5 9.5L0 19L-16.5 9.5L-16.5 -9.5Z" stroke="#3a6ea5" fill="none" stroke-width="2"></path></g><g transform="translate(718 343)"><path d="M0 -15L13 -7.5L13 7.5L0 15L-13 7.5L-13 -7.5Z" stroke="#3a6ea5" fill="none" stroke-width="2"></path></g><g transform="translate(546 36)"><path d="M0 -15L13 -7.5L13 7.5L0 15L-13 7.5L-13 -7.5Z" stroke="#3a6ea5" fill="none" stroke-width="2"></path></g><g transform="translate(428 461)"><path d="M0 -15L13 -7.5L13 7.5L0 15L-13 7.5L-13 -7.5Z" stroke="#3a6ea5" fill="none" stroke-width="2"></path></g><g transform="translate(294 25)"><path d="M0 -18L15.6 -9L15.6 9L0 18L-15.6 9L-15.6 -9Z" stroke="#3a6ea5" fill="none" stroke-width="2"></path></g><g transform="translate(654 146)"><path d="M0 -15L13 -7.5L13 7.5L0 15L-13 7.5L-13 -7.5Z" stroke="#3a6ea5" fill="none" stroke-width="2"></path></g><g transform="translate(495 557)"><path d="M0 -24L20.8 -12L20.8 12L0 24L-20.8 12L-20.8 -12Z" stroke="#3a6ea5" fill="none" stroke-width="2"></path></g><g transform="translate(84 541)"><path d="M0 -20L17.3 -10L17.3 10L0 20L-17.3 10L-17.3 -10Z" stroke="#3a6ea5" fill="none" stroke-width="2"></path></g><g transform="translate(573 536)"><path d="M0 -16L13.9 -8L13.9 8L0 16L-13.9 8L-13.9 -8Z" stroke="#3a6ea5" fill="none" stroke-width="2"></path></g><g transform="translate(896 418)"><path d="M0 -23L19.9 -11.5L19.9 11.5L0 23L-19.9 11.5L-19.9 -11.5Z" stroke="#3a6ea5" fill="none" stroke-width="2"></path></g><g transform="translate(105 426)"><path d="M0 -22L19.1 -11L19.1 11L0 22L-19.1 11L-19.1 -11Z" stroke="#3a6ea5" fill="none" stroke-width="2"></path></g><g transform="translate(23 159)"><path d="M0 -13L11.3 -6.5L11.3 6.5L0 13L-11.3 6.5L-11.3 -6.5Z" stroke="#3a6ea5" fill="none" stroke-width="2"></path></g><g transform="translate(430 38)"><path d="M0 -24L20.8 -12L20.8 12L0 24L-20.8 12L-20.8 -12Z" stroke="#3a6ea5" fill="none" stroke-width="2"></path></g><g transform="translate(505 363)"><path d="M0 -16L13.9 -8L13.9 8L0 16L-13.9 8L-13.9 -8Z" stroke="#3a6ea5" fill="none" stroke-width="2"></path></g><g transform="translate(602 78)"><path d="M0 -20L17.3 -10L17.3 10L0 20L-17.3 10L-17.3 -10Z" stroke="#3a6ea5" fill="none" stroke-width="2"></path></g><g transform="translate(101 598)"><path d="M0 -15L13 -7.5L13 7.5L0 15L-13 7.5L-13 -7.5Z" stroke="#3a6ea5" fill="none" stroke-width="2"></path></g><g transform="translate(817 431)"><path d="M0 -19L16.5 -9.5L16.5 9.5L0 19L-16.5 9.5L-16.5 -9.5Z" stroke="#3a6ea5" fill="none" stroke-width="2"></path></g><g transform="translate(862 213)"><path d="M0 -23L19.9 -11.5L19.9 11.5L0 23L-19.9 11.5L-19.9 -11.5Z" stroke="#3a6ea5" fill="none" stroke-width="2"></path></g><g transform="translate(213 17)"><path d="M0 -25L21.7 -12.5L21.7 12.5L0 25L-21.7 12.5L-21.7 -12.5Z" stroke="#3a6ea5" fill="none" stroke-width="2"></path></g><g transform="translate(500 434)"><path d="M0 -13L11.3 -6.5L11.3 6.5L0 13L-11.3 6.5L-11.3 -6.5Z" stroke="#3a6ea5" fill="none" stroke-width="2"></path></g><g transform="translate(456 513)"><path d="M0 -22L19.1 -11L19.1 11L0 22L-19.1 11L-19.1 -11Z" stroke="#3a6ea5" fill="none" stroke-width="2"></path></g><g transform="translate(716 461)"><path d="M0 -13L11.3 -6.5L11.3 6.5L0 13L-11.3 6.5L-11.3 -6.5Z" stroke="#3a6ea5" fill="none" stroke-width="2"></path></g><g transform="translate(708 61)"><path d="M0 -13L11.3 -6.5L11.3 6.5L0 13L-11.3 6.5L-11.3 -6.5Z" stroke="#3a6ea5" fill="none" stroke-width="2"></path></g><g transform="translate(239 558)"><path d="M0 -21L18.2 -10.5L18.2 10.5L0 21L-18.2 10.5L-18.2 -10.5Z" stroke="#3a6ea5" fill="none" stroke-width="2"></path></g><g transform="translate(420 134)"><path d="M0 -17L14.7 -8.5L14.7 8.5L0 17L-14.7 8.5L-14.7 -8.5Z" stroke="#3a6ea5" fill="none" stroke-width="2"></path></g><g transform="translate(732 255)"><path d="M0 -25L21.7 -12.5L21.7 12.5L0 25L-21.7 12.5L-21.7 -12.5Z" stroke="#3a6ea5" fill="none" stroke-width="2"></path></g><g transform="translate(486 32)"><path d="M0 -17L14.7 -8.5L14.7 8.5L0 17L-14.7 8.5L-14.7 -8.5Z" stroke="#3a6ea5" fill="none" stroke-width="2"></path></g><g transform="translate(95 482)"><path d="M0 -13L11.3 -6.5L11.3 6.5L0 13L-11.3 6.5L-11.3 -6.5Z" stroke="#3a6ea5" fill="none" stroke-width="2"></path></g><g transform="translate(313 103)"><path d="M0 -17L14.7 -8.5L14.7 8.5L0 17L-14.7 8.5L-14.7 -8.5Z" stroke="#3a6ea5" fill="none" stroke-width="2"></path></g><g transform="translate(357 343)"><path d="M0 -20L17.3 -10L17.3 10L0 20L-17.3 10L-17.3 -10Z" stroke="#3a6ea5" fill="none" stroke-width="2"></path></g><g transform="translate(346 531)"><path d="M0 -13L11.3 -6.5L11.3 6.5L0 13L-11.3 6.5L-11.3 -6.5Z" stroke="#3a6ea5" fill="none" stroke-width="2"></path></g><g transform="translate(890 598)"><path d="M0 -17L14.7 -8.5L14.7 8.5L0 17L-14.7 8.5L-14.7 -8.5Z" stroke="#3a6ea5" fill="none" stroke-width="2"></path></g><g transform="translate(875 365)"><path d="M0 -16L13.9 -8L13.9 8L0 16L-13.9 8L-13.9 -8Z" stroke="#3a6ea5" fill="none" stroke-width="2"></path></g><g transform="translate(528 223)"><path d="M0 -23L19.9 -11.5L19.9 11.5L0 23L-19.9 11.5L-19.9 -11.5Z" stroke="#3a6ea5" fill="none" stroke-width="2"></path></g><g transform="translate(605 599)"><path d="M0 -16L13.9 -8L13.9 8L0 16L-13.9 8L-13.9 -8Z" stroke="#3a6ea5" fill="none" stroke-width="2"></path></g><g transform="translate(538 159)"><path d="M0 -15L13 -7.5L13 7.5L0 15L-13 7.5L-13 -7.5Z" stroke="#3a6ea5" fill="none" stroke-width="2"></path></g><g transform="translate(682 416)"><path d="M0 -24L20.8 -12L20.8 12L0 24L-20.8 12L-20.8 -12Z" stroke="#3a6ea5" fill="none" stroke-width="2"></path></g><g transform="translate(457 402)"><path d="M0 -18L15.6 -9L15.6 9L0 18L-15.6 9L-15.6 -9Z" stroke="#3a6ea5" fill="none" stroke-width="2"></path></g><g transform="translate(598 481)"><path d="M0 -22L19.1 -11L19.1 11L0 22L-19.1 11L-19.1 -11Z" stroke="#3a6ea5" fill="none" stroke-width="2"></path></g><g transform="translate(227 173)"><path d="M0 -18L15.6 -9L15.6 9L0 18L-15.6 9L-15.6 -9Z" stroke="#3a6ea5" fill="none" stroke-width="2"></path></g><g transform="translate(894 164)"><path d="M0 -20L17.3 -10L17.3 10L0 20L-17.3 10L-17.3 -10Z" stroke="#3a6ea5" fill="none" stroke-width="2"></path></g><g transform="translate(841 517)"><path d="M0 -15L13 -7.5L13 7.5L0 15L-13 7.5L-13 -7.5Z" stroke="#3a6ea5" fill="none" stroke-width="2"></path></g><g transform="translate(178 361)"><path d="M0 -24L20.8 -12L20.8 12L0 24L-20.8 12L-20.8 -12Z" stroke="#3a6ea5" fill="none" stroke-width="2"></path></g><g transform="translate(106 197)"><path d="M0 -17L14.7 -8.5L14.7 8.5L0 17L-14.7 8.5L-14.7 -8.5Z" stroke="#3a6ea5" fill="none" stroke-width="2"></path></g><g transform="translate(656 91)"><path d="M0 -19L16.5 -9.5L16.5 9.5L0 19L-16.5 9.5L-16.5 -9.5Z" stroke="#3a6ea5" fill="none" stroke-width="2"></path></g></g></svg>